name C:/MyDriveSym/Projects/mobilecap/Data\Session20210825_0002\mocap\ForceDataProcessed\walking2_forces.mot
datacolumns 19
datarows 29
range 0.65450000 0.66850000
endheader 
time	R_ground_force_vx	R_ground_force_vy	R_ground_force_vz	R_ground_force_px	R_ground_force_py	R_ground_force_pz	R_ground_torque_x	R_ground_torque_y	R_ground_torque_z	L_ground_force_vx	L_ground_force_vy	L_ground_force_vz	L_ground_force_px	L_ground_force_py	L_ground_force_pz	L_ground_torque_x	L_ground_torque_y	L_ground_torque_z	
          0.65450000	         50.12427300	        196.40081600	         -2.04064300	          0.36259400	          0.00600000	         -0.15110200	          0.00000000	         -1.03669300	          0.00000000	       -112.90112100	        601.80033200	         15.04057700	          0.85685000	          0.00600000	         -0.24234500	          0.00000000	         -0.14031300	          0.00000000	
          0.65500000	         49.67058000	        194.20882800	         -1.99566800	          0.36282600	          0.00600000	         -0.15111400	          0.00000000	         -1.02666100	          0.00000000	       -113.13363500	        603.36725100	         15.17972300	          0.85699500	          0.00600000	         -0.24237100	          0.00000000	         -0.14652000	          0.00000000	
          0.65550000	         49.21715800	        192.02656900	         -1.95138700	          0.36306000	          0.00600000	         -0.15112700	          0.00000000	         -1.01666300	          0.00000000	       -113.36118500	        604.91929200	         15.31847500	          0.85713900	          0.00600000	         -0.24239800	          0.00000000	         -0.15274800	          0.00000000	
          0.65600000	         48.76406000	        189.85415300	         -1.90779100	          0.36329600	          0.00600000	         -0.15113900	          0.00000000	         -1.00670100	          0.00000000	       -113.58376500	        606.45642700	         15.45681400	          0.85728300	          0.00600000	         -0.24242400	          0.00000000	         -0.15899500	          0.00000000	
          0.65650000	         48.31133700	        187.69169000	         -1.86487000	          0.36353300	          0.00600000	         -0.15115100	          0.00000000	         -0.99677500	          0.00000000	       -113.80136700	        607.97862400	         15.59472300	          0.85742600	          0.00600000	         -0.24245000	          0.00000000	         -0.16526100	          0.00000000	
          0.65700000	         47.85904100	        185.53929000	         -1.82261600	          0.36377200	          0.00600000	         -0.15116300	          0.00000000	         -0.98688500	          0.00000000	       -114.01398300	        609.48585600	         15.73218300	          0.85756900	          0.00600000	         -0.24247600	          0.00000000	         -0.17154400	          0.00000000	
          0.65750000	         47.40722400	        183.39705900	         -1.78101700	          0.36401400	          0.00600000	         -0.15117400	          0.00000000	         -0.97703300	          0.00000000	       -114.22160900	        610.97809300	         15.86917600	          0.85771100	          0.00600000	         -0.24250200	          0.00000000	         -0.17784400	          0.00000000	
          0.65800000	         46.95593600	        181.26510400	         -1.74006600	          0.36425700	          0.00600000	         -0.15118600	          0.00000000	         -0.96721700	          0.00000000	       -114.42423600	        612.45531100	         16.00568500	          0.85785300	          0.00600000	         -0.24252800	          0.00000000	         -0.18416100	          0.00000000	
          0.65850000	         46.50522700	        179.14352600	         -1.69975200	          0.36450200	          0.00600000	         -0.15119700	          0.00000000	         -0.95744000	          0.00000000	       -114.62186100	        613.91748300	         16.14169300	          0.85799500	          0.00600000	         -0.24255400	          0.00000000	         -0.19049300	          0.00000000	
          0.65900000	         46.05514900	        177.03242900	         -1.66006600	          0.36474900	          0.00600000	         -0.15120900	          0.00000000	         -0.94770200	          0.00000000	       -114.81447900	        615.36458300	         16.27718100	          0.85813600	          0.00600000	         -0.24257900	          0.00000000	         -0.19683900	          0.00000000	
          0.65950000	         45.60575000	        174.93191000	         -1.62099800	          0.36499900	          0.00600000	         -0.15122000	          0.00000000	         -0.93800200	          0.00000000	       -115.00208400	        616.79658900	         16.41213400	          0.85827600	          0.00600000	         -0.24260500	          0.00000000	         -0.20319900	          0.00000000	
          0.66000000	         45.15708100	        172.84206700	         -1.58253900	          0.36525000	          0.00600000	         -0.15123100	          0.00000000	         -0.92834200	          0.00000000	       -115.18467200	        618.21347700	         16.54653400	          0.85841700	          0.00600000	         -0.24263100	          0.00000000	         -0.20957200	          0.00000000	
          0.66050000	         44.70918900	        170.76299500	         -1.54468000	          0.36550400	          0.00600000	         -0.15124100	          0.00000000	         -0.91872200	          0.00000000	       -115.36224100	        619.61522400	         16.68036600	          0.85855600	          0.00600000	         -0.24265700	          0.00000000	         -0.21595700	          0.00000000	
          0.66100000	         44.26212300	        168.69478700	         -1.50741100	          0.36576000	          0.00600000	         -0.15125200	          0.00000000	         -0.90914300	          0.00000000	       -115.53478700	        621.00181100	         16.81361200	          0.85869600	          0.00600000	         -0.24268200	          0.00000000	         -0.22235200	          0.00000000	
          0.66150000	         43.81593100	        166.63753400	         -1.47072200	          0.36601900	          0.00600000	         -0.15126200	          0.00000000	         -0.89960400	          0.00000000	       -115.70230700	        622.37321700	         16.94625700	          0.85883400	          0.00600000	         -0.24270800	          0.00000000	         -0.22875800	          0.00000000	
          0.66200000	         43.37066100	        164.59132600	         -1.43460500	          0.36627900	          0.00600000	         -0.15127300	          0.00000000	         -0.89010700	          0.00000000	       -115.86480000	        623.72942200	         17.07828500	          0.85897300	          0.00600000	         -0.24273300	          0.00000000	         -0.23517300	          0.00000000	
          0.66250000	         42.92635800	        162.55624900	         -1.39904900	          0.36654300	          0.00600000	         -0.15128300	          0.00000000	         -0.88065100	          0.00000000	       -116.02226300	        625.07040800	         17.20968100	          0.85911100	          0.00600000	         -0.24275900	          0.00000000	         -0.24159500	          0.00000000	
          0.66300000	         42.48306900	        160.53238700	         -1.36404600	          0.36680800	          0.00600000	         -0.15129300	          0.00000000	         -0.87123800	          0.00000000	       -116.17469700	        626.39615700	         17.34043000	          0.85924800	          0.00600000	         -0.24278400	          0.00000000	         -0.24802500	          0.00000000	
          0.66350000	         42.04084100	        158.51982400	         -1.32958600	          0.36707700	          0.00600000	         -0.15130200	          0.00000000	         -0.86186800	          0.00000000	       -116.32210000	        627.70665200	         17.47051700	          0.85938500	          0.00600000	         -0.24281000	          0.00000000	         -0.25446200	          0.00000000	
          0.66400000	         41.59971700	        156.51864100	         -1.29565900	          0.36734800	          0.00600000	         -0.15131200	          0.00000000	         -0.85254100	          0.00000000	       -116.46447100	        629.00187700	         17.59992700	          0.85952200	          0.00600000	         -0.24283500	          0.00000000	         -0.26090300	          0.00000000	
          0.66450000	         41.15974300	        154.52891400	         -1.26225800	          0.36762100	          0.00600000	         -0.15132100	          0.00000000	         -0.84325700	          0.00000000	       -116.60181300	        630.28181700	         17.72864800	          0.85965800	          0.00600000	         -0.24286000	          0.00000000	         -0.26734900	          0.00000000	
          0.66500000	         40.72096200	        152.55072200	         -1.22937200	          0.36789800	          0.00600000	         -0.15133000	          0.00000000	         -0.83401800	          0.00000000	       -116.73412500	        631.54645800	         17.85666400	          0.85979400	          0.00600000	         -0.24288600	          0.00000000	         -0.27379700	          0.00000000	
          0.66550000	         40.28341800	        150.58413900	         -1.19699200	          0.36817700	          0.00600000	         -0.15133900	          0.00000000	         -0.82482300	          0.00000000	       -116.86140800	        632.79578500	         17.98396200	          0.85992900	          0.00600000	         -0.24291100	          0.00000000	         -0.28024800	          0.00000000	
          0.66600000	         39.84715400	        148.62923500	         -1.16511000	          0.36845900	          0.00600000	         -0.15134800	          0.00000000	         -0.81567200	          0.00000000	       -116.98366600	        634.02978600	         18.11053000	          0.86006400	          0.00600000	         -0.24293600	          0.00000000	         -0.28670000	          0.00000000	
          0.66650000	         39.41221200	        146.68608300	         -1.13371600	          0.36874400	          0.00600000	         -0.15135700	          0.00000000	         -0.80656700	          0.00000000	       -117.10090000	        635.24844900	         18.23635300	          0.86019800	          0.00600000	         -0.24296100	          0.00000000	         -0.29315300	          0.00000000	
          0.66700000	         38.97863400	        144.75475000	         -1.10280200	          0.36903300	          0.00600000	         -0.15136500	          0.00000000	         -0.79750700	          0.00000000	       -117.21311300	        636.45176200	         18.36142100	          0.86033200	          0.00600000	         -0.24298600	          0.00000000	         -0.29960400	          0.00000000	
          0.66750000	         38.54646100	        142.83530100	         -1.07235900	          0.36932400	          0.00600000	         -0.15137400	          0.00000000	         -0.78849400	          0.00000000	       -117.32030900	        637.63971400	         18.48572000	          0.86046600	          0.00600000	         -0.24301100	          0.00000000	         -0.30605300	          0.00000000	
          0.66800000	         38.11573300	        140.92780100	         -1.04237800	          0.36961900	          0.00600000	         -0.15138200	          0.00000000	         -0.77952700	          0.00000000	       -117.42249100	        638.81229500	         18.60923900	          0.86059900	          0.00600000	         -0.24303600	          0.00000000	         -0.31249900	          0.00000000	
          0.66850000	         37.68649000	        139.03231100	         -1.01285000	          0.36991700	          0.00600000	         -0.15138900	          0.00000000	         -0.77060600	          0.00000000	       -117.51966300	        639.96949600	         18.73196700	          0.86073200	          0.00600000	         -0.24306100	          0.00000000	         -0.31894100	          0.00000000	
